<?xml version="1.0" encoding="utf-8"?>
<svg id="Layer_1" data-name="Layer 1" xmlns="http://www.w3.org/2000/svg" viewBox="0 0 96.59 122.88">
  <defs>
    <style>.cls-1{fill-rule:evenodd;}</style>
  </defs>
  <title>coffee</title>
  <path class="cls-1" d="M42.65,7.68A26.83,26.83,0,0,1,46.83,0a43.57,43.57,0,0,0-1.44,10.6C45.54,17.07,48.57,20.05,53,28c6.4,11.52,3.3,22.66-5.21,31.85C50.85,49.59,52.29,43,50,35.47a34,34,0,0,0-2.74-6.22c-2.86-5.21-6-9.51-5.69-15.8a20.81,20.81,0,0,1,1.13-5.77ZM10.89,54.6a2.43,2.43,0,0,1,.54-1.06c1.57-2.46,5.24-4.54,10.36-6A73.09,73.09,0,0,1,36.34,45,26.9,26.9,0,0,1,36,49.35a65.37,65.37,0,0,0-12.66,2.24c-4.17,1.22-7,2.63-7.69,4l-.15.92c.28,1.52,3.22,3.1,7.84,4.45a82.84,82.84,0,0,0,22.28,2.68A82.89,82.89,0,0,0,67.85,61c4.63-1.35,7.58-2.94,7.85-4.46l-.09-.74c-.56-1.44-3.42-2.91-7.76-4.18a60.51,60.51,0,0,0-7.74-1.65,28,28,0,0,0,1.2-4.18,63.87,63.87,0,0,1,8,1.74c5.48,1.61,9.31,3.87,10.67,6.56a2.41,2.41,0,0,1,.33.83,4.7,4.7,0,0,1,.22,1.39c0,.12,0,.23,0,.34.18,1.71.3,3.39.38,5,5-1.58,8.79-1,11.46.93a10.42,10.42,0,0,1,4.14,7.65,17.1,17.1,0,0,1-1.86,9.27c-3.09,6.2-9.92,11.7-20.42,11.72-.37.66-.76,1.3-1.16,1.92a44.38,44.38,0,0,1,11.74,4.64c3.94,2.42,6.17,5.35,6.17,8.64,0,5-5.46,9.35-14.29,12.22-8,2.62-19.06,4.24-31.2,4.24s-23.19-1.62-31.21-4.24C5.46,115.77,0,111.46,0,106.42c0-3.29,2.23-6.22,6.17-8.64a44.62,44.62,0,0,1,12.06-4.72,53,53,0,0,1-7.1-17.67A50.69,50.69,0,0,1,10,65.22a55.22,55.22,0,0,1,.58-8.75v-.19a4.89,4.89,0,0,1,.31-1.68Zm4,7.55c0,1-.07,2-.06,3a47.1,47.1,0,0,0,1,9.22c2.76,12.66,8.86,21.3,16.2,26a25,25,0,0,0,27.63-.13c7.2-4.69,13.11-13.28,15.65-25.76a47.39,47.39,0,0,0,.88-8.81v-.35a1.22,1.22,0,0,1,0-.27c0-.91,0-1.84-.06-2.78a29.17,29.17,0,0,1-6.79,2.82A88.4,88.4,0,0,1,45.57,68a88.53,88.53,0,0,1-23.78-2.9,28.94,28.94,0,0,1-6.93-2.91ZM81,66.74A49.81,49.81,0,0,1,80,75.41a57.12,57.12,0,0,1-3.33,10.88c7-.75,11.53-4.62,13.68-8.93a12.39,12.39,0,0,0,1.38-6.66,5.7,5.7,0,0,0-2.14-4.2c-1.73-1.23-4.58-1.4-8.64.24ZM70,97.33a35.47,35.47,0,0,1-7.74,6.91,29.83,29.83,0,0,1-32.82.16,35.43,35.43,0,0,1-8.12-7.15,43.56,43.56,0,0,0-12.65,4.64c-2.46,1.51-3.85,3.06-3.85,4.53,0,2.71,4.18,5.44,11,7.64,7.56,2.47,18.07,4,29.72,4s22.15-1.52,29.71-4c6.77-2.2,11-4.93,11-7.64,0-1.47-1.39-3-3.85-4.53A42.93,42.93,0,0,0,70,97.33Zm-32-82.06c-1.06,7-.13,9.16,2.17,12.45,2.55,3.64,4.7,6.48,5.33,10.05.88,5-1.41,10.36-4.45,14.22,4.76-23.42-13.36-17.91-3.05-36.72Z"/>
  <path class="cls-1" d="M 34.029 72.679 C 38.061 72.672 41.656 75.207 43.003 79.007 C 43.791 78.515 44.693 78.236 45.622 78.2 C 46.64 78.166 47.649 78.415 48.534 78.917 C 50.674 73.065 57.773 70.821 62.887 74.381 L 60.998 66.568 C 60.931 66.277 60.888 66.079 60.853 65.915 C 60.753 65.444 60.734 65.344 60.202 64.801 L 57.622 62.158 C 57.001 61.518 57.303 60.448 58.166 60.229 C 58.567 60.126 58.991 60.246 59.281 60.544 L 61.844 63.185 C 62.842 64.221 62.878 64.427 63.1 65.432 C 63.135 65.607 63.18 65.814 63.227 66.014 L 66.188 78.276 C 66.209 78.362 66.219 78.451 66.22 78.541 C 68.981 85.308 63.38 92.529 56.138 91.537 C 51.45 90.895 47.95 86.899 47.93 82.168 C 47.936 81.849 47.959 81.529 47.998 81.213 C 47.361 80.657 46.546 80.351 45.701 80.35 C 44.864 80.415 44.083 80.794 43.514 81.412 C 43.514 81.664 43.542 81.92 43.542 82.175 C 43.511 89.486 35.58 94.021 29.263 90.342 C 25.173 87.958 23.465 82.929 25.251 78.548 C 25.251 78.458 25.263 78.368 25.287 78.283 L 28.244 66.023 C 28.293 65.822 28.336 65.616 28.372 65.442 C 28.586 64.435 28.63 64.218 29.627 63.192 L 32.195 60.544 C 32.817 59.904 33.896 60.178 34.136 61.035 C 34.248 61.435 34.141 61.861 33.852 62.158 L 31.283 64.804 C 30.746 65.349 30.746 65.444 30.635 65.912 C 30.601 66.077 30.559 66.275 30.491 66.568 L 28.602 74.381 C 30.193 73.27 32.089 72.673 34.029 72.679 Z M 57.442 74.859 C 60.175 74.859 62.68 76.382 63.939 78.81 L 63.939 78.832 C 63.977 78.99 64.05 79.14 64.153 79.269 C 66.388 84.439 62.192 90.087 56.598 89.441 C 51.003 88.794 48.209 82.335 51.567 77.814 C 52.946 75.953 55.125 74.859 57.442 74.859 Z M 27.529 78.832 C 27.491 78.991 27.42 79.14 27.316 79.269 C 25.059 84.446 29.255 90.125 34.866 89.488 C 40.478 88.854 43.297 82.384 39.941 77.84 C 36.719 73.477 30.038 74 27.533 78.813 L 27.533 78.832 L 27.529 78.832 Z M 30.057 81.592 C 29.849 82.081 29.19 82.163 28.868 81.739 C 28.763 81.598 28.714 81.421 28.733 81.247 C 29.252 79.261 30.734 77.671 32.678 77.015 C 33.143 76.758 33.712 77.101 33.7 77.633 C 33.696 77.97 33.445 78.254 33.11 78.303 C 31.601 78.81 30.449 80.048 30.057 81.592 Z" style=""/>
  <path d="M 59.542 97.724 L 30.989 97.724 L 45.266 90.308 Z M 35.083 96.724 L 55.448 96.724 L 45.266 91.434 Z" style="fill: none;"/>
</svg>